<svg version="1.1" id="Layer_1" xmlns="http://www.w3.org/2000/svg" xmlns:xlink="http://www.w3.org/1999/xlink" x="0px" y="0px"
	 width="100%" viewBox="0 0 289 80" enable-background="new 0 0 289 80" xml:space="preserve">
<path fill="#FEFEFE" opacity="1.000000" stroke="none" 
	d="
M241.000000,81.000000 
	C160.666702,81.000000 80.833389,81.000000 1.000064,81.000000 
	C1.000043,54.333370 1.000043,27.666742 1.000021,1.000086 
	C97.333260,1.000057 193.666519,1.000057 289.999817,1.000029 
	C289.999878,27.666586 289.999878,54.333172 289.999939,80.999878 
	C273.833344,81.000000 257.666656,81.000000 241.000000,81.000000 
M32.636639,11.994528 
	C24.197317,12.101841 20.104643,15.014109 20.029497,21.551310 
	C19.868595,35.548836 19.891411,49.550091 20.009735,63.548378 
	C20.055099,68.915482 23.927353,72.918259 29.169579,72.966980 
	C43.334068,73.098640 57.500835,73.042648 71.665985,72.951118 
	C73.003418,72.942474 75.099831,72.542427 75.540100,71.667801 
	C77.590424,67.594650 80.440018,63.365452 80.696358,59.054859 
	C81.397560,47.263306 80.976677,35.402527 80.923347,23.569506 
	C80.888847,15.916078 76.897232,12.030457 69.096992,12.005051 
	C57.263855,11.966507 45.430508,11.994602 32.636639,11.994528 
M134.074875,67.604042 
	C140.560379,70.946556 146.453949,69.940956 151.508514,64.934563 
	C153.204498,71.932838 158.065826,67.347069 161.723312,68.889366 
	C161.723312,66.317078 161.723312,64.520264 161.723312,62.723446 
	C161.723312,54.944080 161.723312,47.164719 161.723312,38.908970 
	C157.794113,39.799358 153.425430,36.508095 151.419052,41.081753 
	C148.290527,40.034817 145.288971,38.426979 142.156052,38.107655 
	C135.646286,37.444138 130.294678,41.296562 127.922516,47.544880 
	C125.200027,54.715927 127.262825,61.940681 134.074875,67.604042 
M268.078064,59.447762 
	C268.078064,52.675877 268.078064,45.903988 268.078064,38.732796 
	C264.143524,39.793888 259.775787,36.603867 257.669647,41.809494 
	C250.629227,36.552040 243.048920,36.753113 237.762360,42.229645 
	C232.315735,47.872005 231.846344,58.800819 237.405640,64.634476 
	C239.525528,66.858986 242.994034,68.884331 245.921219,68.991104 
	C249.995270,69.139717 254.138199,67.399673 258.303253,66.456322 
	C259.592041,71.740639 264.353607,67.481720 268.078064,68.935516 
	C268.078064,65.665398 268.078064,63.047222 268.078064,59.447762 
M171.988922,64.425743 
	C177.528580,70.256767 184.379471,70.450760 191.397308,68.418030 
	C197.308044,66.705963 200.339310,62.050838 200.764435,56.118973 
	C201.165039,50.529350 200.850388,44.888462 200.850388,39.290298 
	C197.420395,39.290298 194.384064,39.290298 190.970520,39.290298 
	C190.970520,44.971581 191.351898,50.327538 190.773132,55.577644 
	C190.557159,57.536667 188.406006,60.232224 186.579483,60.801121 
	C184.690201,61.389557 181.498459,60.436077 180.033905,58.987141 
	C178.639191,57.607285 178.384842,54.737995 178.255356,52.487503 
	C178.000732,48.062038 178.180405,43.611588 178.180405,39.216080 
	C174.725449,39.216080 171.830704,39.216080 168.471222,39.216080 
	C169.677551,47.639790 166.478928,56.179111 171.988922,64.425743 
M93.902405,52.497700 
	C93.902405,57.769974 93.902405,63.042248 93.902405,68.356735 
	C103.270866,68.356735 112.116966,68.356735 120.851852,68.356735 
	C120.851852,65.405205 120.851852,62.839020 120.851852,59.898548 
	C114.918564,59.898548 109.325089,59.898548 103.412064,59.898548 
	C103.412064,46.740520 103.412064,33.974907 103.412064,21.011467 
	C100.163582,21.011467 97.247879,21.011467 93.902405,21.011467 
	C93.902405,31.289759 93.902405,41.394051 93.902405,52.497700 
M207.337021,39.915825 
	C207.337021,49.337406 207.337021,58.758987 207.337021,68.397118 
	C210.808014,68.397118 213.836090,68.397118 217.091919,68.397118 
	C217.091919,64.255669 217.088043,60.443356 217.092697,56.631050 
	C217.104324,47.081657 219.943344,44.753876 229.207153,46.908466 
	C230.323471,44.611069 231.458847,42.274429 233.034332,39.032059 
	C229.743286,38.632549 227.118622,37.764481 224.708420,38.170269 
	C222.109344,38.607853 219.711014,40.237766 217.661270,41.152809 
	C215.120636,36.860920 211.096252,39.626022 207.337021,39.915825 
z"/>
<path fill="#4D54F5" opacity="1.000000" stroke="none" 
	d="
M33.116943,11.994457 
	C45.430508,11.994602 57.263855,11.966507 69.096992,12.005051 
	C76.897232,12.030457 80.888847,15.916078 80.923347,23.569506 
	C80.976677,35.402527 81.397560,47.263306 80.696358,59.054859 
	C80.440018,63.365452 77.590424,67.594650 75.540100,71.667801 
	C75.099831,72.542427 73.003418,72.942474 71.665985,72.951118 
	C57.500835,73.042648 43.334068,73.098640 29.169579,72.966980 
	C23.927353,72.918259 20.055099,68.915482 20.009735,63.548378 
	C19.891411,49.550091 19.868595,35.548836 20.029497,21.551310 
	C20.104643,15.014109 24.197317,12.101841 33.116943,11.994457 
M50.404850,54.143486 
	C45.806095,55.401535 48.550304,59.040440 48.290703,61.553230 
	C48.222118,62.217106 50.738602,63.781567 52.121815,63.850281 
	C57.585598,64.121674 63.098434,64.272820 68.532234,63.787434 
	C70.318100,63.627907 72.337082,61.674053 73.410866,60.002129 
	C73.874031,59.280968 72.207314,57.191902 71.077080,55.019943 
	C64.465065,54.785118 57.853046,54.550297 50.404850,54.143486 
M37.145313,42.656563 
	C37.087856,44.144142 37.586197,46.027168 36.864201,47.041931 
	C35.018982,49.635376 32.414051,51.687347 30.560675,54.276382 
	C29.774767,55.374241 30.109793,57.274532 29.935362,58.810123 
	C32.082150,58.845829 33.059933,63.887039 36.250889,60.007099 
	C39.165260,56.463478 42.745388,53.476368 45.818996,50.052673 
	C50.625603,44.698593 50.533943,44.072742 45.463608,38.936047 
	C43.043289,36.484047 39.858253,34.427158 38.376980,31.503565 
	C36.712101,28.217581 34.312939,28.153259 32.425365,29.476858 
	C30.114578,31.097227 29.155584,33.821552 31.991615,36.494717 
	C33.741154,38.143784 35.052498,40.257740 37.145313,42.656563 
z"/>
<path fill="#090909" opacity="1.000000" stroke="none" 
	d="
M133.792389,67.359093 
	C127.262825,61.940681 125.200027,54.715927 127.922516,47.544880 
	C130.294678,41.296562 135.646286,37.444138 142.156052,38.107655 
	C145.288971,38.426979 148.290527,40.034817 151.419052,41.081753 
	C153.425430,36.508095 157.794113,39.799358 161.723312,38.908970 
	C161.723312,47.164719 161.723312,54.944080 161.723312,62.723446 
	C161.723312,64.520264 161.723312,66.317078 161.723312,68.889366 
	C158.065826,67.347069 153.204498,71.932838 151.508514,64.934563 
	C146.453949,69.940956 140.560379,70.946556 133.792389,67.359093 
M146.057358,45.941040 
	C145.232666,45.905251 144.397308,45.766666 143.585114,45.851070 
	C139.594910,46.265728 137.289795,48.563297 136.671875,52.458332 
	C136.058746,56.323082 137.408966,59.883789 141.108948,60.815853 
	C143.692017,61.466557 147.420517,60.777336 149.560089,59.213085 
	C152.600266,56.990387 152.632034,53.050690 150.764191,49.725368 
	C149.934830,48.248848 148.186539,47.288486 146.057358,45.941040 
z"/>
<path fill="#050505" opacity="1.000000" stroke="none" 
	d="
M268.078064,59.938404 
	C268.078064,63.047222 268.078064,65.665398 268.078064,68.935516 
	C264.353607,67.481720 259.592041,71.740639 258.303253,66.456322 
	C254.138199,67.399673 249.995270,69.139717 245.921219,68.991104 
	C242.994034,68.884331 239.525528,66.858986 237.405640,64.634476 
	C231.846344,58.800819 232.315735,47.872005 237.762360,42.229645 
	C243.048920,36.753113 250.629227,36.552040 257.669647,41.809494 
	C259.775787,36.603867 264.143524,39.793888 268.078064,38.732796 
	C268.078064,45.903988 268.078064,52.675877 268.078064,59.938404 
M256.441559,48.172138 
	C255.930695,47.753834 255.468735,47.247726 254.901016,46.931488 
	C251.234726,44.889267 247.831894,45.343964 245.048508,48.456089 
	C242.242447,51.593517 242.285248,55.152699 244.650070,58.475948 
	C246.760834,61.442135 249.699356,62.621712 253.346619,61.273563 
	C257.474091,59.747921 258.607025,56.510971 258.212860,52.545574 
	C258.086914,51.278362 257.375946,50.069302 256.441559,48.172138 
z"/>
<path fill="#060606" opacity="1.000000" stroke="none" 
	d="
M171.741791,64.142456 
	C166.478928,56.179111 169.677551,47.639790 168.471222,39.216080 
	C171.830704,39.216080 174.725449,39.216080 178.180405,39.216080 
	C178.180405,43.611588 178.000732,48.062038 178.255356,52.487503 
	C178.384842,54.737995 178.639191,57.607285 180.033905,58.987141 
	C181.498459,60.436077 184.690201,61.389557 186.579483,60.801121 
	C188.406006,60.232224 190.557159,57.536667 190.773132,55.577644 
	C191.351898,50.327538 190.970520,44.971581 190.970520,39.290298 
	C194.384064,39.290298 197.420395,39.290298 200.850388,39.290298 
	C200.850388,44.888462 201.165039,50.529350 200.764435,56.118973 
	C200.339310,62.050838 197.308044,66.705963 191.397308,68.418030 
	C184.379471,70.450760 177.528580,70.256767 171.741791,64.142456 
z"/>
<path fill="#0D0D0D" opacity="1.000000" stroke="none" 
	d="
M93.902405,51.998024 
	C93.902405,41.394051 93.902405,31.289759 93.902405,21.011467 
	C97.247879,21.011467 100.163582,21.011467 103.412064,21.011467 
	C103.412064,33.974907 103.412064,46.740520 103.412064,59.898548 
	C109.325089,59.898548 114.918564,59.898548 120.851852,59.898548 
	C120.851852,62.839020 120.851852,65.405205 120.851852,68.356735 
	C112.116966,68.356735 103.270866,68.356735 93.902405,68.356735 
	C93.902405,63.042248 93.902405,57.769974 93.902405,51.998024 
z"/>
<path fill="#0C0C0C" opacity="1.000000" stroke="none" 
	d="
M207.607574,39.539314 
	C211.096252,39.626022 215.120636,36.860920 217.661270,41.152809 
	C219.711014,40.237766 222.109344,38.607853 224.708420,38.170269 
	C227.118622,37.764481 229.743286,38.632549 233.034332,39.032059 
	C231.458847,42.274429 230.323471,44.611069 229.207153,46.908466 
	C219.943344,44.753876 217.104324,47.081657 217.092697,56.631050 
	C217.088043,60.443356 217.091919,64.255669 217.091919,68.397118 
	C213.836090,68.397118 210.808014,68.397118 207.337021,68.397118 
	C207.337021,58.758987 207.337021,49.337406 207.607574,39.539314 
z"/>
<path fill="#EFEFFE" opacity="1.000000" stroke="none" 
	d="
M36.852943,42.409775 
	C35.052498,40.257740 33.741154,38.143784 31.991615,36.494717 
	C29.155584,33.821552 30.114578,31.097227 32.425365,29.476858 
	C34.312939,28.153259 36.712101,28.217581 38.376980,31.503565 
	C39.858253,34.427158 43.043289,36.484047 45.463608,38.936047 
	C50.533943,44.072742 50.625603,44.698593 45.818996,50.052673 
	C42.745388,53.476368 39.165260,56.463478 36.250889,60.007099 
	C33.059933,63.887039 32.082150,58.845829 29.935362,58.810123 
	C30.109793,57.274532 29.774767,55.374241 30.560675,54.276382 
	C32.414051,51.687347 35.018982,49.635376 36.864201,47.041931 
	C37.586197,46.027168 37.087856,44.144142 36.852943,42.409775 
z"/>
<path fill="#EAEBFE" opacity="1.000000" stroke="none" 
	d="
M51.241028,54.315472 
	C57.853046,54.550297 64.465065,54.785118 71.152267,55.817635 
	C71.711250,60.495186 70.430595,62.446232 66.103554,61.990948 
	C62.847137,61.648315 59.525726,61.930454 56.233280,61.921803 
	C49.536671,61.904213 48.819618,60.807922 51.241028,54.315472 
z"/>
<path fill="#959AF9" opacity="1.000000" stroke="none" 
	d="
M50.822937,54.229477 
	C48.819618,60.807922 49.536671,61.904213 56.233280,61.921803 
	C59.525726,61.930454 62.847137,61.648315 66.103554,61.990948 
	C70.430595,62.446232 71.711250,60.495186 71.367805,56.169788 
	C72.207314,57.191902 73.874031,59.280968 73.410866,60.002129 
	C72.337082,61.674053 70.318100,63.627907 68.532234,63.787434 
	C63.098434,64.272820 57.585598,64.121674 52.121815,63.850281 
	C50.738602,63.781567 48.222118,62.217106 48.290703,61.553230 
	C48.550304,59.040440 45.806095,55.401535 50.822937,54.229477 
z"/>
<path fill="#F6F6F6" opacity="1.000000" stroke="none" 
	d="
M146.456360,46.017433 
	C148.186539,47.288486 149.934830,48.248848 150.764191,49.725368 
	C152.632034,53.050690 152.600266,56.990387 149.560089,59.213085 
	C147.420517,60.777336 143.692017,61.466557 141.108948,60.815853 
	C137.408966,59.883789 136.058746,56.323082 136.671875,52.458332 
	C137.289795,48.563297 139.594910,46.265728 143.585114,45.851070 
	C144.397308,45.766666 145.232666,45.905251 146.456360,46.017433 
z"/>
<path fill="#F7F7F7" opacity="1.000000" stroke="none" 
	d="
M256.687103,48.502884 
	C257.375946,50.069302 258.086914,51.278362 258.212860,52.545574 
	C258.607025,56.510971 257.474091,59.747921 253.346619,61.273563 
	C249.699356,62.621712 246.760834,61.442135 244.650070,58.475948 
	C242.285248,55.152699 242.242447,51.593517 245.048508,48.456089 
	C247.831894,45.343964 251.234726,44.889267 254.901016,46.931488 
	C255.468735,47.247726 255.930695,47.753834 256.687103,48.502884 
z"/>
</svg>